
  <svg width="203" height="43" viewBox="0 0 203 43" fill="none" xmlns="http://www.w3.org/2000/svg">
<path d="M2.76967 0.970098C3.75242 1.00081 4.61234 1.01616 5.34941 1.01616C6.08648 0.985453 6.68534 0.970098 7.14601 0.970098H8.48195C8.81977 0.939386 9.23437 0.924031 9.72575 0.924031C10.1557 0.924031 10.6778 0.924031 11.292 0.924031C11.9062 0.924031 12.6126 0.939386 13.4111 0.970098C13.6568 1.83001 13.9332 2.67457 14.2403 3.50377C14.5781 4.30226 14.8699 5.02398 15.1156 5.66891C15.4227 6.43669 15.7298 7.15841 16.0369 7.83405C16.344 8.5097 16.7126 9.32355 17.1425 10.2756C17.511 11.0741 17.9564 12.0568 18.4784 13.2239C19.0005 14.3602 19.6148 15.6654 20.3211 17.1395C20.6589 16.1875 20.9661 15.3122 21.2425 14.5137C21.5496 13.7152 21.8106 13.0242 22.0256 12.4407C22.2713 11.7651 22.4709 11.1509 22.6245 10.5981C22.778 10.0453 22.9469 9.36961 23.1312 8.57112C23.2848 7.89547 23.4537 7.08163 23.6379 6.12958C23.8529 5.17753 24.0679 4.07193 24.2829 2.81277C25.1735 2.81277 25.972 2.81277 26.6783 2.81277C27.3847 2.81277 27.9989 2.79741 28.521 2.7667C29.1045 2.7667 29.6266 2.75135 30.0873 2.72064C30.5787 2.72064 31.239 2.68993 32.0682 2.6285C32.7745 2.56708 33.7112 2.52101 34.8782 2.4903C36.076 2.42888 37.5501 2.3521 39.3006 2.25997C38.6557 2.72064 38.1336 3.1813 37.7344 3.64197C37.3658 4.07193 37.0741 4.45582 36.8591 4.79364C36.6134 5.19289 36.4599 5.57678 36.3984 5.94531C36.337 6.25243 36.2756 6.95878 36.2142 8.06439C36.1835 9.16999 36.1374 10.4906 36.076 12.0261C36.0453 13.531 36.0145 15.1433 35.9838 16.8631C35.9838 18.583 35.9992 20.2107 36.0299 21.7462C36.0606 23.2818 36.1067 24.6177 36.1681 25.754C36.2602 26.8596 36.3831 27.566 36.5366 27.8731C36.7516 28.2416 37.0434 28.6716 37.4119 29.163C37.7497 29.5929 38.1797 30.0843 38.7018 30.6371C39.2546 31.1899 39.9763 31.8041 40.8669 32.4798C39.4542 32.5412 38.2718 32.5873 37.3198 32.618C36.3984 32.6487 35.6307 32.6794 35.0164 32.7101C34.3101 32.7408 33.7419 32.7562 33.312 32.7562C32.8513 32.7562 32.2217 32.7716 31.4232 32.8023C30.7169 32.833 29.7802 32.879 28.6131 32.9405C27.4461 32.9712 25.9413 33.0326 24.0986 33.1247C24.5286 32.6334 24.9278 32.142 25.2963 31.6506C25.6649 31.1592 25.972 30.7139 26.2177 30.3147C26.5248 29.854 26.7858 29.4087 27.0008 28.9787C27.2158 28.3952 27.3847 27.3357 27.5075 25.8001C27.6304 24.4795 27.7225 22.5908 27.7839 20.1339C27.8454 17.6463 27.8454 14.3141 27.7839 10.1374C27.2004 11.0894 26.6783 12.0415 26.2177 12.9935C25.7877 13.9149 25.4038 14.7594 25.066 15.5272C24.6975 16.4178 24.3596 17.2777 24.0525 18.107C23.7454 18.9669 23.423 19.9189 23.0851 20.9631C22.778 21.8537 22.4095 22.9133 21.9795 24.1417C21.5803 25.3702 21.1196 26.7214 20.5975 28.1956L18.847 28.2877C18.6013 27.0593 18.3556 25.9537 18.1099 24.9709C17.8642 23.9574 17.6185 23.0975 17.3728 22.3912C17.0964 21.562 16.82 20.8249 16.5436 20.18C16.2365 19.535 15.8987 18.8133 15.5302 18.0148C15.1923 17.3392 14.7777 16.5407 14.2864 15.6193C13.8257 14.698 13.2883 13.6692 12.674 12.5329C12.3669 15.6654 12.1827 18.2144 12.1212 20.18C12.0598 22.1148 12.0598 23.6196 12.1212 24.6945C12.1827 25.9844 12.2748 26.9211 12.3976 27.5046C12.5819 28.0267 12.8737 28.6102 13.2729 29.2551C13.6107 29.8079 14.0714 30.4682 14.6549 31.236C15.2691 31.9731 16.0523 32.8023 17.0043 33.7236C16.3287 33.7236 15.6223 33.7236 14.8852 33.7236C14.1482 33.7236 13.4725 33.739 12.8583 33.7697C12.1212 33.8004 11.3995 33.8157 10.6932 33.8157C9.95609 33.8464 9.09617 33.8925 8.11342 33.9539C7.2535 34.0154 6.22468 34.0768 5.02694 34.1382C3.8292 34.1996 2.4472 34.3071 0.880927 34.4607C1.55657 34.0307 2.10938 33.6161 2.53933 33.2169C2.96929 32.7869 3.30711 32.403 3.5528 32.0652C3.85991 31.6659 4.09025 31.2667 4.2438 30.8675C4.33594 30.6218 4.41272 30.0843 4.47414 29.2551C4.56627 28.4259 4.64305 27.4124 4.70447 26.2147C4.79661 25.017 4.85803 23.681 4.88874 22.2069C4.95016 20.7328 4.99623 19.2433 5.02694 17.7384C5.08836 16.2029 5.13443 14.7134 5.16514 13.2699C5.19585 11.7958 5.21121 10.4752 5.21121 9.30819C5.24192 8.11045 5.25727 7.11234 5.25727 6.31385C5.25727 5.51536 5.25727 5.00862 5.25727 4.79364C5.16514 4.33297 5.02694 3.87231 4.84267 3.41164C4.68912 3.01239 4.44343 2.59779 4.1056 2.16783C3.76778 1.73788 3.32247 1.33863 2.76967 0.970098ZM43.8613 15.3429C44.0148 15.1587 44.1069 14.8209 44.1377 14.3295C44.1991 13.8074 44.3219 13.2239 44.5062 12.5789C44.7212 11.934 45.0743 11.2584 45.5657 10.552C46.0571 9.84564 46.8556 9.18535 47.9612 8.57112C49.0361 7.9569 50.0803 7.58836 51.0937 7.46552C52.1072 7.34267 53.0746 7.38874 53.996 7.60372C54.9173 7.8187 55.7772 8.15652 56.5757 8.61719C57.4049 9.07786 58.1573 9.58459 58.833 10.1374C59.2936 10.5059 59.6622 11.0434 59.9386 11.7497C60.215 12.4254 60.43 13.1932 60.5835 14.0531C60.7371 14.913 60.8446 15.819 60.906 16.771C60.9981 17.6923 61.0595 18.5983 61.0902 19.489C61.121 20.3489 61.1363 21.1474 61.1363 21.8844C61.167 22.5908 61.2284 23.1743 61.3206 23.635C61.4434 24.3106 61.6584 24.8941 61.9655 25.3855C62.2726 25.8462 62.6104 26.2454 62.979 26.5832C63.3475 26.8904 63.7161 27.136 64.0846 27.3203C64.4531 27.5046 64.7756 27.6428 65.052 27.7349C65.2363 27.827 65.4052 27.8885 65.5587 27.9192C65.8658 28.042 66.0808 28.042 66.2037 27.9192C66.0194 28.3491 65.8505 28.7177 65.6969 29.0248C65.5434 29.3319 65.4205 29.5929 65.3284 29.8079C65.2055 30.0536 65.0981 30.2532 65.0059 30.4068C64.9138 30.5911 64.8063 30.76 64.6835 30.9135C64.5913 31.0671 64.4685 31.236 64.3149 31.4203C64.1614 31.6045 64.0078 31.8041 63.8543 32.0191C63.455 31.8656 63.0711 31.6813 62.7026 31.4663C62.3648 31.2513 62.0576 31.0517 61.7812 30.8675C61.4434 30.6525 61.1363 30.4375 60.8599 30.2225C60.5835 30.0075 60.3225 29.7619 60.0768 29.4855C59.8618 29.2398 59.6315 28.9787 59.3858 28.7023C59.1708 28.4259 58.9865 28.1188 58.833 27.781C58.6487 28.1802 58.2034 28.7484 57.497 29.4855C56.8214 30.2225 55.9308 30.8982 54.8252 31.5124C53.7196 32.0959 52.4297 32.5105 50.9555 32.7562C49.5121 33.0019 47.9151 32.833 46.1646 32.2495C45.3968 32.0038 44.6751 31.6506 43.9995 31.1899C43.3238 30.6985 42.7403 30.115 42.2489 29.4394C41.7883 28.7637 41.4504 27.996 41.2354 27.136C41.0512 26.2454 41.0665 25.2627 41.2815 24.1878C41.4965 23.1129 41.8804 22.2069 42.4332 21.4698C42.986 20.7328 43.6463 20.1339 44.4141 19.6732C45.1818 19.2126 46.0418 18.8594 46.9938 18.6137C47.9458 18.368 48.9286 18.1991 49.9421 18.107C50.7406 18.0762 51.5391 18.1223 52.3376 18.2452C53.0132 18.368 53.7196 18.5983 54.4566 18.9362C55.1937 19.2433 55.8233 19.7193 56.3454 20.3642C56.3147 18.7365 56.2532 17.4467 56.1611 16.4946C56.0997 15.5119 56.0383 14.7594 55.9768 14.2373C55.854 13.6231 55.7465 13.1932 55.6544 12.9475C55.5008 12.7325 55.3319 12.4868 55.1476 12.2104C54.9941 11.934 54.7944 11.6883 54.5488 11.4733C54.3031 11.2276 53.996 11.028 53.6274 10.8745C53.2589 10.7209 52.8289 10.6595 52.3376 10.6902C51.8155 10.7209 51.4009 10.8591 51.0937 11.1048C50.7866 11.3505 50.5409 11.6422 50.3567 11.9801C50.2031 12.2872 50.111 12.625 50.0803 12.9935C50.0496 13.3621 50.0649 13.6845 50.1263 13.9609C50.1878 14.1452 50.2799 14.3448 50.4027 14.5598C50.5256 14.7441 50.6945 14.9437 50.9095 15.1587C51.1245 15.3737 51.4162 15.5579 51.7847 15.7115C51.0784 15.8036 50.4488 15.8804 49.896 15.9418C49.3432 15.9725 48.8672 16.0186 48.4679 16.08C48.0073 16.1414 47.608 16.1875 47.2702 16.2182C46.9324 16.2489 46.5331 16.3103 46.0725 16.4025C45.6732 16.4639 45.1818 16.5407 44.5983 16.6328C44.0148 16.7249 43.3392 16.8478 42.5714 17.0013C42.7557 16.7864 42.9246 16.5867 43.0781 16.4025C43.2317 16.1875 43.3699 16.0032 43.4927 15.8497C43.6156 15.6654 43.7384 15.4965 43.8613 15.3429ZM50.7713 20.8249C50.2185 20.8556 49.6657 20.9938 49.1129 21.2395C48.5601 21.4545 48.0687 21.7769 47.6387 22.2069C47.2088 22.6061 46.8402 23.0822 46.5331 23.635C46.2567 24.1571 46.1185 24.7406 46.1185 25.3855C46.1185 26.0304 46.2721 26.5986 46.5792 27.09C46.917 27.5506 47.347 27.9345 47.8691 28.2416C48.4219 28.5488 49.0054 28.733 49.6196 28.7945C50.2645 28.8559 50.8941 28.7945 51.5083 28.6102C52.0919 28.3952 52.6447 28.0574 53.1668 27.5967C53.6888 27.1053 54.1342 26.5832 54.5027 26.0304C54.8712 25.4469 55.1323 24.8788 55.2858 24.326C55.4394 23.7425 55.4547 23.2664 55.3319 22.8979C55.0862 22.0994 54.5334 21.5466 53.6735 21.2395C52.8136 20.9017 51.8462 20.7635 50.7713 20.8249ZM67.1711 28.9327C67.386 27.9192 67.5396 27.0286 67.6317 26.2608C67.7546 25.4623 67.8467 24.802 67.9081 24.2799C67.9696 23.6657 68.0003 23.1436 68.0003 22.7136C67.9696 22.1915 67.9388 21.5773 67.9081 20.871C67.9081 20.1339 67.8774 19.4122 67.816 18.7058C67.7853 17.9688 67.7392 17.3238 67.6778 16.771C67.6164 16.1875 67.5396 15.7729 67.4475 15.5272C67.3246 15.2815 67.1557 15.0205 66.9407 14.7441C66.5108 14.222 65.8812 13.7152 65.052 13.2239C65.7583 13.0703 66.3572 12.9475 66.8486 12.8553C67.3707 12.7325 67.8006 12.625 68.1385 12.5329C68.507 12.41 68.8295 12.3025 69.1059 12.2104C69.3516 12.1183 69.6433 12.0261 69.9811 11.934C70.2575 11.8726 70.5954 11.7958 70.9946 11.7037C71.3939 11.6115 71.8545 11.504 72.3766 11.3812L72.2384 15.5733C73.2212 14.4063 74.2193 13.531 75.2328 12.9475C76.2462 12.364 77.1983 11.9494 78.0889 11.7037C79.1024 11.3966 80.1005 11.243 81.0832 11.243C82.3117 11.3044 83.448 11.504 84.4922 11.8419C85.5671 12.1797 86.4884 12.5789 87.2562 13.0396C88.0547 13.4696 88.6996 13.9302 89.191 14.4216C89.6824 14.913 89.9741 15.3429 90.0663 15.7115C90.4348 16.9092 90.5269 18.0148 90.3427 19.0283C90.1584 20.011 89.9127 20.9784 89.6056 21.9305C89.3292 22.8518 89.0835 23.7732 88.8685 24.6945C88.6843 25.6158 88.761 26.614 89.0989 27.6888C89.2217 27.9652 89.3446 28.2416 89.4674 28.518C89.5902 28.7637 89.7438 29.0094 89.9281 29.2551C90.1123 29.5008 90.3273 29.7004 90.573 29.854C90.2352 29.8233 89.8974 29.8079 89.5595 29.8079C89.2217 29.7772 88.9146 29.7465 88.6382 29.7158C88.3004 29.6851 87.9933 29.6544 87.7169 29.6237C87.4097 29.5929 86.9951 29.5776 86.4731 29.5776C85.5824 29.5776 84.2004 29.6237 82.327 29.7158C82.6034 29.0709 82.8184 28.5334 82.972 28.1034C83.1562 27.6428 83.3098 27.2742 83.4326 26.9978C83.5555 26.66 83.6476 26.399 83.709 26.2147C84.0776 25.3241 84.2926 24.3106 84.354 23.1743C84.4461 22.038 84.3693 20.8863 84.1236 19.7193C84.0315 19.32 83.878 18.844 83.663 18.2912C83.448 17.7384 83.1562 17.201 82.7877 16.6789C82.4499 16.1568 82.0353 15.7115 81.5439 15.3429C81.0832 14.9744 80.5458 14.7594 79.9316 14.698C79.3173 14.6366 78.6263 14.7901 77.8586 15.1587C77.1215 15.5272 76.323 16.2029 75.4631 17.1856C74.8182 18.0148 74.3114 19.0283 73.9429 20.226C73.6051 21.2395 73.3747 22.514 73.2519 24.0496C73.129 25.5544 73.3133 27.3203 73.8047 29.3473C73.3747 29.2858 72.9755 29.2551 72.6069 29.2551C72.2384 29.2244 71.9313 29.1937 71.6856 29.163C71.3785 29.1323 71.1021 29.1016 70.8564 29.0709C70.58 29.0709 70.2729 29.0555 69.9351 29.0248C69.628 29.0248 69.2441 29.0248 68.7834 29.0248C68.3227 28.9941 67.7853 28.9634 67.1711 28.9327ZM115.127 14.4677C115.034 13.8534 114.958 13.3467 114.896 12.9475C114.835 12.5175 114.773 12.1797 114.712 11.934C114.651 11.6269 114.605 11.3966 114.574 11.243C114.512 11.0894 114.436 10.9205 114.343 10.7363C114.282 10.5827 114.175 10.3984 114.021 10.1835C113.898 9.96848 113.745 9.72279 113.56 9.44639C113.96 9.56924 114.359 9.64601 114.758 9.67672C115.188 9.70744 115.587 9.73815 115.956 9.76886C116.355 9.79957 116.77 9.79957 117.2 9.76886C117.63 9.76886 118.121 9.7535 118.674 9.72279C119.165 9.69208 119.749 9.67672 120.424 9.67672C121.131 9.64601 121.929 9.59995 122.82 9.53852C122.298 9.66137 121.852 9.87635 121.484 10.1835C121.146 10.4599 120.854 10.767 120.609 11.1048C120.332 11.4733 120.102 11.8726 119.918 12.3025C119.764 12.7018 119.672 13.4696 119.641 14.6059C119.61 15.7115 119.61 17.0321 119.641 18.5676C119.672 20.0725 119.703 21.7002 119.733 23.4507C119.795 25.2012 119.825 26.875 119.825 28.472C119.856 30.069 119.856 31.5277 119.825 32.8483C119.795 34.1382 119.718 35.0902 119.595 35.7045C119.165 37.6393 118.367 39.2055 117.2 40.4033C116.033 41.6317 114.497 42.292 112.593 42.3842C110.29 42.4763 108.462 42.2613 107.111 41.7392C105.79 41.2171 104.762 40.5722 104.025 39.8044C103.287 39.0673 102.735 38.3149 102.366 37.5471C101.998 36.7794 101.614 36.1959 101.214 35.7966C100.846 35.4588 100.477 35.1363 100.109 34.8292C99.771 34.5835 99.4178 34.3378 99.0493 34.0921C98.7115 33.8464 98.3737 33.6929 98.0358 33.6315C98.9265 33.6622 99.7249 33.6775 100.431 33.6775C101.138 33.6775 101.737 33.6775 102.228 33.6775C102.781 33.6775 103.272 33.6622 103.702 33.6315H105.176H109.368C108.754 33.8157 108.293 34.0154 107.986 34.2303C107.679 34.476 107.464 34.7217 107.341 34.9674C107.218 35.2438 107.157 35.5202 107.157 35.7966C107.28 36.5337 107.679 37.0711 108.355 37.4089C109.03 37.7468 109.952 37.9464 111.119 38.0078C112.255 38.0692 113.038 38.0385 113.468 37.9157C113.898 37.8235 114.236 37.6393 114.482 37.3629C114.973 36.6258 115.388 35.6738 115.725 34.5067C115.971 33.524 116.14 32.2495 116.232 30.6832C116.355 29.0862 116.217 27.136 115.818 24.8327C114.835 26.184 113.699 27.1975 112.409 27.8731C111.119 28.5488 109.89 29.0401 108.723 29.3473C107.341 29.6851 105.944 29.854 104.531 29.854C100.815 29.7004 98.0358 28.8405 96.1932 27.2742C94.3505 25.708 93.5059 23.6043 93.6595 20.9631C93.7516 19.6425 94.1509 18.3219 94.8572 17.0013C95.5943 15.6808 96.5463 14.4984 97.7134 13.4542C98.9111 12.41 100.278 11.5808 101.813 10.9666C103.349 10.3524 104.946 10.0913 106.604 10.1835C107.863 10.3063 109.046 10.5366 110.151 10.8745C111.103 11.1816 112.04 11.6115 112.961 12.1643C113.914 12.7171 114.635 13.4849 115.127 14.4677ZM100.477 19.0744C100.293 20.2721 100.37 21.393 100.708 22.4372C101.076 23.4814 101.583 24.3874 102.228 25.1552C102.873 25.8922 103.595 26.4758 104.393 26.9057C105.192 27.305 105.944 27.4892 106.65 27.4585C108.124 27.4278 109.399 26.7675 110.474 25.4776C111.549 24.1571 112.194 22.1915 112.409 19.5811C112.501 18.2912 112.332 17.1856 111.902 16.2643C111.503 15.3122 110.996 14.5445 110.382 13.9609C109.768 13.3774 109.123 12.9628 108.447 12.7171C107.771 12.4714 107.234 12.364 106.835 12.3947C106.282 12.4561 105.668 12.625 104.992 12.9014C104.347 13.1471 103.717 13.531 103.103 14.0531C102.489 14.5445 101.936 15.2047 101.445 16.0339C100.984 16.8631 100.662 17.8766 100.477 19.0744ZM135.212 26.5832C136.072 26.5832 136.87 26.4911 137.607 26.3068C138.221 26.1533 138.805 25.9076 139.358 25.5698C139.941 25.2012 140.325 24.6638 140.509 23.9574C141.124 24.0803 141.646 24.1878 142.076 24.2799C142.506 24.3413 142.874 24.4027 143.181 24.4642C143.519 24.5563 143.811 24.6177 144.057 24.6484C144.302 24.7099 144.594 24.7713 144.932 24.8327C145.239 24.8941 145.607 24.9709 146.037 25.063C146.498 25.1245 147.036 25.2166 147.65 25.3394C147.189 25.278 146.713 25.3241 146.222 25.4776C145.761 25.6312 145.316 25.8001 144.886 25.9844C144.394 26.1994 143.934 26.4604 143.504 26.7675C143.227 26.9518 142.905 27.2282 142.536 27.5967C142.199 27.9652 141.707 28.3184 141.062 28.6563C140.417 28.9941 139.557 29.2858 138.482 29.5315C137.438 29.7465 136.087 29.8233 134.429 29.7619C132.432 29.7004 130.759 29.3473 129.407 28.7023C128.056 28.0267 126.966 27.2128 126.137 26.2608C125.307 25.278 124.709 24.2185 124.34 23.0822C123.971 21.9459 123.772 20.8863 123.741 19.9036C123.71 18.9208 124.002 17.892 124.616 16.8171C125.231 15.7422 126.091 14.7594 127.196 13.8688C128.332 12.9782 129.699 12.2565 131.296 11.7037C132.893 11.1202 134.644 10.8284 136.548 10.8284C137.653 10.8284 138.667 10.9666 139.588 11.243C140.54 11.4887 141.4 11.8265 142.168 12.2565C142.966 12.6864 143.657 13.1778 144.241 13.7306C144.824 14.2527 145.316 14.7901 145.715 15.3429C146.114 15.9265 146.452 16.5407 146.728 17.1856C146.974 17.7384 147.174 18.368 147.327 19.0744C147.481 19.7807 147.527 20.5024 147.466 21.2395C145.131 21.3009 143.243 21.347 141.799 21.3777C140.387 21.4084 139.281 21.4238 138.482 21.4238H136.409H134.843C134.29 21.4238 133.569 21.4391 132.678 21.4698C131.787 21.5005 130.697 21.5466 129.407 21.608C129.561 22.8365 129.945 23.7885 130.559 24.4642C131.204 25.1091 131.88 25.6005 132.586 25.9383C133.384 26.3068 134.26 26.5218 135.212 26.5832ZM131.066 18.2912C132.048 18.3526 132.862 18.3987 133.507 18.4294C134.183 18.4601 134.736 18.4908 135.166 18.5216C135.626 18.5523 135.995 18.5676 136.271 18.5676H137.423C138.191 18.5676 139.619 18.5216 141.707 18.4294C141.615 17.0781 141.323 16.0493 140.832 15.3429C140.371 14.6366 139.88 14.1145 139.358 13.7767C138.744 13.4081 138.068 13.1932 137.331 13.1317C135.335 13.1624 133.845 13.577 132.862 14.3755C131.91 15.174 131.311 16.4793 131.066 18.2912Z" fill="#CB8C06"/>
<path d="M155.827 23.2664C156.318 23.1897 156.717 23.1282 157.024 23.0822C157.347 23.0207 157.608 22.9747 157.808 22.944C158.038 22.8979 158.214 22.8595 158.337 22.8288C158.46 22.7981 158.637 22.752 158.867 22.6906C159.067 22.6292 159.328 22.5601 159.65 22.4833C159.973 22.3912 160.38 22.2683 160.871 22.1148C160.748 22.2683 160.648 22.4065 160.572 22.5294C160.51 22.6369 160.449 22.729 160.387 22.8058C160.326 22.8979 160.272 22.9824 160.226 23.0591C160.18 23.1359 160.134 23.2511 160.088 23.4046C160.057 23.5275 160.019 23.7041 159.973 23.9344C159.927 24.1494 159.888 24.4335 159.857 24.7866C160.687 24.2645 161.447 23.873 162.138 23.6119C162.844 23.3509 163.458 23.1666 163.98 23.0591C164.595 22.9363 165.147 22.8902 165.639 22.9209C166.253 22.967 166.821 23.1052 167.343 23.3355C167.881 23.5505 168.364 23.8116 168.794 24.1187C169.224 24.4258 169.601 24.7636 169.923 25.1321C170.246 25.5007 170.499 25.8692 170.683 26.2377C170.806 26.4834 170.883 26.8366 170.914 27.2973C170.96 27.7579 170.914 28.2493 170.775 28.7714C170.637 29.2935 170.391 29.8079 170.038 30.3147C169.7 30.806 169.217 31.1976 168.587 31.4894C167.497 31.9807 166.414 32.2571 165.339 32.3186C164.879 32.3493 164.403 32.3339 163.911 32.2725C163.435 32.2111 162.952 32.0805 162.46 31.8809C161.984 31.6813 161.524 31.3972 161.078 31.0287C160.633 30.6448 160.226 30.1534 159.857 29.5546C159.735 30.3377 159.643 31.021 159.581 31.6045C159.535 32.1727 159.504 32.6487 159.489 33.0326C159.474 33.4779 159.474 33.8541 159.489 34.1612C159.52 34.4683 159.581 34.7985 159.673 35.1517C159.75 35.4588 159.857 35.812 159.996 36.2112C160.149 36.6258 160.341 37.0558 160.572 37.5011C160.479 37.4704 160.349 37.4473 160.18 37.432C160.026 37.432 159.865 37.4473 159.696 37.478C159.512 37.5088 159.305 37.5395 159.074 37.5702C158.859 37.6162 158.621 37.67 158.36 37.7314C158.145 37.7775 157.892 37.8312 157.6 37.8926C157.324 37.9694 157.04 38.0539 156.748 38.146C156.917 37.9464 157.047 37.7161 157.14 37.455C157.247 37.2093 157.331 36.979 157.393 36.764C157.454 36.503 157.508 36.2419 157.554 35.9809C157.569 35.7505 157.593 35.3129 157.623 34.668C157.669 34.0384 157.708 33.309 157.738 32.4798C157.769 31.6352 157.792 30.7523 157.808 29.831C157.838 28.9096 157.854 28.0574 157.854 27.2742C157.869 26.4758 157.869 25.8001 157.854 25.2473C157.838 24.6945 157.808 24.372 157.761 24.2799C157.7 24.1724 157.585 24.0572 157.416 23.9344C157.278 23.8269 157.078 23.7194 156.817 23.6119C156.571 23.5044 156.241 23.3893 155.827 23.2664ZM161.309 27.4585C161.201 27.8117 161.178 28.1572 161.239 28.495C161.301 28.8328 161.454 29.1476 161.7 29.4394C161.961 29.7311 162.322 29.9922 162.783 30.2225C163.259 30.4375 163.85 30.5987 164.556 30.7062C165.263 30.8137 165.8 30.7984 166.169 30.6602C166.537 30.522 166.806 30.307 166.975 30.0152C167.159 29.7081 167.282 29.3549 167.343 28.9557C167.405 28.5411 167.482 28.1111 167.574 27.6658C167.666 27.2359 167.65 26.7982 167.528 26.3529C167.405 25.8922 167.228 25.4776 166.998 25.1091C166.783 24.7406 166.537 24.4411 166.261 24.2108C166 23.9651 165.769 23.8423 165.57 23.8423C165.094 23.8423 164.625 23.9651 164.165 24.2108C163.704 24.4565 163.282 24.7636 162.898 25.1321C162.514 25.5007 162.176 25.8999 161.884 26.3299C161.608 26.7445 161.416 27.1207 161.309 27.4585ZM172.388 34.6449C172.541 34.4146 172.664 34.1996 172.756 34C172.848 33.8004 172.925 33.6315 172.987 33.4933C173.048 33.3244 173.094 33.1708 173.125 33.0326C173.14 32.9405 173.148 32.6717 173.148 32.2264C173.148 31.7811 173.132 31.2206 173.102 30.545C173.086 29.8693 173.063 29.1092 173.033 28.2647C173.017 27.4201 172.987 26.5602 172.94 25.6849C172.91 24.8097 172.871 23.9574 172.825 23.1282C172.795 22.299 172.764 21.5543 172.733 20.894C172.702 20.2183 172.672 19.6655 172.641 19.2356C172.61 18.8056 172.587 18.5599 172.572 18.4985C172.541 18.4064 172.487 18.3143 172.411 18.2221C172.257 18.0379 171.996 17.8613 171.628 17.6923C172.411 17.4927 173.01 17.3315 173.424 17.2086C173.67 17.1472 173.885 17.0858 174.069 17.0244C174.238 16.963 174.407 16.9015 174.576 16.8401C174.714 16.7787 174.868 16.7096 175.037 16.6328C175.205 16.5407 175.359 16.4409 175.497 16.3334C175.42 16.7787 175.359 17.2086 175.313 17.6232C175.267 18.0379 175.228 18.4217 175.198 18.7749C175.167 19.1742 175.152 19.5581 175.152 19.9266C175.075 20.679 175.029 21.5005 175.013 22.3912C175.013 23.2664 175.021 24.1571 175.037 25.063C175.052 25.969 175.083 26.852 175.129 27.7119C175.175 28.5718 175.221 29.3549 175.267 30.0613C175.328 30.7523 175.382 31.3435 175.428 31.8349C175.489 32.3109 175.536 32.618 175.566 32.7562C175.628 32.9865 175.689 33.2092 175.751 33.4242C175.812 33.6084 175.881 33.8004 175.958 34C176.035 34.215 176.127 34.3839 176.234 34.5067H174C173.8 34.5067 173.608 34.5144 173.424 34.5298C173.255 34.5451 173.079 34.5605 172.894 34.5758C172.71 34.5912 172.541 34.6142 172.388 34.6449ZM178.791 24.6715C178.868 24.5793 178.914 24.4104 178.929 24.1647C178.96 23.9037 179.021 23.6119 179.113 23.2895C179.221 22.967 179.397 22.6292 179.643 22.276C179.889 21.9228 180.288 21.5927 180.841 21.2856C181.378 20.9784 181.9 20.7942 182.407 20.7328C182.914 20.6713 183.398 20.6944 183.858 20.8019C184.319 20.9093 184.749 21.0783 185.148 21.3086C185.563 21.5389 185.939 21.7923 186.277 22.0687C186.507 22.253 186.691 22.5217 186.83 22.8749C186.968 23.2127 187.075 23.5966 187.152 24.0265C187.229 24.4565 187.283 24.9095 187.313 25.3855C187.359 25.8462 187.39 26.2992 187.405 26.7445C187.421 27.1744 187.428 27.5737 187.428 27.9422C187.444 28.2954 187.475 28.5871 187.521 28.8175C187.582 29.1553 187.69 29.4471 187.843 29.6928C187.997 29.9231 188.166 30.1227 188.35 30.2916C188.534 30.4452 188.718 30.568 188.903 30.6602C189.087 30.7523 189.248 30.8214 189.386 30.8675C189.478 30.9135 189.563 30.9442 189.64 30.9596C189.793 31.021 189.901 31.021 189.962 30.9596C189.87 31.1746 189.786 31.3588 189.709 31.5124C189.632 31.6659 189.571 31.7965 189.525 31.904C189.463 32.0268 189.409 32.1266 189.363 32.2034C189.317 32.2955 189.263 32.38 189.202 32.4568C189.156 32.5335 189.095 32.618 189.018 32.7101C188.941 32.8023 188.864 32.9021 188.787 33.0096C188.588 32.9328 188.396 32.8407 188.212 32.7332C188.043 32.6257 187.889 32.5259 187.751 32.4337C187.582 32.3262 187.428 32.2188 187.29 32.1113C187.152 32.0038 187.022 31.8809 186.899 31.7427C186.791 31.6199 186.676 31.4894 186.553 31.3512C186.446 31.213 186.354 31.0594 186.277 30.8905C186.185 31.0901 185.962 31.3742 185.609 31.7427C185.271 32.1113 184.826 32.4491 184.273 32.7562C183.72 33.048 183.075 33.2553 182.338 33.3781C181.616 33.5009 180.818 33.4165 179.943 33.1247C179.559 33.0019 179.198 32.8253 178.86 32.595C178.522 32.3493 178.23 32.0575 177.985 31.7197C177.754 31.3819 177.586 30.998 177.478 30.568C177.386 30.1227 177.394 29.6313 177.501 29.0939C177.609 28.5564 177.801 28.1034 178.077 27.7349C178.353 27.3664 178.683 27.0669 179.067 26.8366C179.451 26.6063 179.881 26.4297 180.357 26.3068C180.833 26.184 181.325 26.0995 181.831 26.0535C182.231 26.0381 182.63 26.0612 183.029 26.1226C183.367 26.184 183.72 26.2992 184.089 26.4681C184.457 26.6216 184.772 26.8596 185.033 27.1821C185.018 26.3683 184.987 25.7233 184.941 25.2473C184.91 24.7559 184.879 24.3797 184.849 24.1187C184.787 23.8116 184.734 23.5966 184.687 23.4737C184.611 23.3662 184.526 23.2434 184.434 23.1052C184.357 22.967 184.258 22.8442 184.135 22.7367C184.012 22.6138 183.858 22.514 183.674 22.4372C183.49 22.3605 183.275 22.3297 183.029 22.3451C182.768 22.3605 182.561 22.4296 182.407 22.5524C182.254 22.6752 182.131 22.8211 182.039 22.99C181.962 23.1436 181.916 23.3125 181.9 23.4968C181.885 23.681 181.893 23.8423 181.923 23.9805C181.954 24.0726 182 24.1724 182.062 24.2799C182.123 24.372 182.208 24.4718 182.315 24.5793C182.423 24.6868 182.568 24.779 182.753 24.8557C182.4 24.9018 182.085 24.9402 181.808 24.9709C181.532 24.9863 181.294 25.0093 181.094 25.04C180.864 25.0707 180.664 25.0938 180.495 25.1091C180.327 25.1245 180.127 25.1552 179.897 25.2012C179.697 25.232 179.451 25.2703 179.159 25.3164C178.868 25.3625 178.53 25.4239 178.146 25.5007C178.238 25.3932 178.323 25.2934 178.399 25.2012C178.476 25.0938 178.545 25.0016 178.607 24.9248C178.668 24.8327 178.73 24.7482 178.791 24.6715ZM182.246 27.4124C181.97 27.4278 181.693 27.4969 181.417 27.6197C181.14 27.7272 180.895 27.8885 180.68 28.1034C180.465 28.3031 180.28 28.5411 180.127 28.8175C179.989 29.0785 179.92 29.3703 179.92 29.6928C179.92 30.0152 179.996 30.2993 180.15 30.545C180.319 30.7753 180.534 30.9673 180.795 31.1208C181.071 31.2744 181.363 31.3665 181.67 31.3972C181.993 31.4279 182.307 31.3972 182.614 31.3051C182.906 31.1976 183.183 31.0287 183.444 30.7984C183.705 30.5527 183.927 30.2916 184.112 30.0152C184.296 29.7235 184.426 29.4394 184.503 29.163C184.58 28.8712 184.588 28.6332 184.526 28.4489C184.403 28.0497 184.127 27.7733 183.697 27.6197C183.267 27.4508 182.783 27.3817 182.246 27.4124ZM190.446 31.4663C190.553 30.9596 190.63 30.5143 190.676 30.1304C190.738 29.7311 190.784 29.401 190.814 29.14C190.845 28.8328 190.86 28.5718 190.86 28.3568C190.845 28.0958 190.83 27.7887 190.814 27.4355C190.814 27.0669 190.799 26.7061 190.768 26.3529C190.753 25.9844 190.73 25.6619 190.699 25.3855C190.668 25.0938 190.63 24.8864 190.584 24.7636C190.523 24.6408 190.438 24.5102 190.331 24.372C190.116 24.111 189.801 23.8576 189.386 23.6119C189.739 23.5352 190.039 23.4737 190.285 23.4277C190.546 23.3662 190.761 23.3125 190.93 23.2664C191.114 23.205 191.275 23.1513 191.413 23.1052C191.536 23.0591 191.682 23.0131 191.851 22.967C191.989 22.9363 192.158 22.8979 192.358 22.8518C192.557 22.8058 192.788 22.752 193.049 22.6906L192.98 24.7866C193.471 24.2031 193.97 23.7655 194.477 23.4737C194.983 23.182 195.459 22.9747 195.905 22.8518C196.411 22.6983 196.911 22.6215 197.402 22.6215C198.016 22.6522 198.584 22.752 199.106 22.9209C199.644 23.0898 200.105 23.2895 200.488 23.5198C200.888 23.7348 201.21 23.9651 201.456 24.2108C201.702 24.4565 201.847 24.6715 201.893 24.8557C202.078 25.4546 202.124 26.0074 202.032 26.5141C201.94 27.0055 201.817 27.4892 201.663 27.9652C201.525 28.4259 201.402 28.8866 201.295 29.3473C201.202 29.8079 201.241 30.307 201.41 30.8444C201.471 30.9826 201.533 31.1208 201.594 31.259C201.655 31.3819 201.732 31.5047 201.824 31.6276C201.916 31.7504 202.024 31.8502 202.147 31.927C201.978 31.9116 201.809 31.904 201.64 31.904C201.471 31.8886 201.318 31.8732 201.179 31.8579C201.01 31.8425 200.857 31.8272 200.719 31.8118C200.565 31.7965 200.358 31.7888 200.097 31.7888C199.652 31.7888 198.961 31.8118 198.024 31.8579C198.162 31.5354 198.27 31.2667 198.346 31.0517C198.438 30.8214 198.515 30.6371 198.577 30.4989C198.638 30.33 198.684 30.1995 198.715 30.1074C198.899 29.662 199.007 29.1553 199.037 28.5871C199.083 28.019 199.045 27.4432 198.922 26.8596C198.876 26.66 198.799 26.422 198.692 26.1456C198.584 25.8692 198.438 25.6005 198.254 25.3394C198.085 25.0784 197.878 24.8557 197.632 24.6715C197.402 24.4872 197.133 24.3797 196.826 24.349C196.519 24.3183 196.173 24.3951 195.79 24.5793C195.421 24.7636 195.022 25.1014 194.592 25.5928C194.269 26.0074 194.016 26.5141 193.832 27.113C193.663 27.6197 193.548 28.257 193.486 29.0248C193.425 29.7772 193.517 30.6602 193.763 31.6736C193.548 31.6429 193.348 31.6276 193.164 31.6276C192.98 31.6122 192.826 31.5968 192.703 31.5815C192.55 31.5661 192.411 31.5508 192.289 31.5354C192.15 31.5354 191.997 31.5277 191.828 31.5124C191.674 31.5124 191.482 31.5124 191.252 31.5124C191.022 31.497 190.753 31.4817 190.446 31.4663Z" fill="#16170D"/>
</svg>